<svg width="38" height="7" viewBox="0 0 38 7" fill="none" xmlns="http://www.w3.org/2000/svg">
<path d="M1.7831 4.37677V6.54763H0.616776V0.697912H2.74264C3.43196 0.697912 3.95033 0.863626 4.29775 1.19505C4.65068 1.52648 4.82714 1.97667 4.82714 2.54563C4.82714 3.10353 4.64516 3.5482 4.2812 3.87963C3.92275 4.21106 3.4099 4.37677 2.74264 4.37677H1.7831ZM2.61856 3.44048C3.30237 3.44048 3.64427 3.1422 3.64427 2.54563C3.64427 2.25287 3.56431 2.02915 3.40439 1.87448C3.24446 1.71982 2.98252 1.64248 2.61856 1.64248H1.7831V3.44048H2.61856ZM8.31442 1.89106C8.84381 1.89106 9.26568 2.06505 9.58001 2.41305C9.89434 2.76105 10.0515 3.24991 10.0515 3.87963V6.54763H8.89345V4.0122C8.89345 3.64763 8.7997 3.36591 8.6122 3.16706C8.42471 2.96267 8.16828 2.86048 7.84292 2.86048C7.51205 2.86048 7.24735 2.9682 7.04882 3.18363C6.8503 3.39905 6.75104 3.70839 6.75104 4.11163V6.54763H5.58471V0.416199H6.75104V2.87706C6.87236 2.56772 7.07088 2.32744 7.34661 2.1562C7.62785 1.97944 7.95046 1.89106 8.31442 1.89106ZM12.8728 1.89934C13.2588 1.89934 13.5896 1.99048 13.8654 2.17277C14.1411 2.35506 14.3369 2.60087 14.4527 2.9102V1.95734H15.6107V6.54763H14.4527V5.58649C14.3369 5.89582 14.1411 6.14439 13.8654 6.3322C13.5896 6.51448 13.2588 6.60563 12.8728 6.60563C12.4867 6.60563 12.1393 6.51172 11.8305 6.32391C11.5217 6.1361 11.279 5.86544 11.1026 5.51191C10.9316 5.15286 10.8462 4.73305 10.8462 4.25248C10.8462 3.77191 10.9316 3.35487 11.1026 3.00134C11.279 2.64229 11.5217 2.36887 11.8305 2.18106C12.1393 1.99325 12.4867 1.89934 12.8728 1.89934ZM13.2367 2.91848C12.8728 2.91848 12.5805 3.03724 12.3599 3.27477C12.1393 3.51229 12.029 3.8382 12.029 4.25248C12.029 4.66677 12.1393 4.99267 12.3599 5.2302C12.5805 5.4622 12.8728 5.5782 13.2367 5.5782C13.5896 5.5782 13.8792 5.45944 14.1053 5.22191C14.3369 4.97887 14.4527 4.65572 14.4527 4.25248C14.4527 3.84372 14.3369 3.52058 14.1053 3.28306C13.8792 3.04001 13.5896 2.91848 13.2367 2.91848ZM17.8341 2.83563C18.005 2.54287 18.2311 2.31363 18.5124 2.14791C18.7936 1.97667 19.1079 1.89106 19.4553 1.89106V3.1422H19.1162C18.2614 3.1422 17.8341 3.53991 17.8341 4.33534V6.54763H16.6677V1.95734H17.8341V2.83563ZM26.3957 0.764199V6.54763H25.2376V2.51248L23.757 6.54763H22.7478L21.2672 2.52906V6.54763H20.1008V0.764199H21.5153L23.2689 5.1142L24.9895 0.764199H26.3957ZM31.7614 4.07848C31.7614 4.19448 31.7477 4.32706 31.7201 4.4762H28.3617C28.3783 4.88496 28.4886 5.18601 28.6926 5.37934C28.8966 5.57267 29.1503 5.66934 29.4536 5.66934C29.7238 5.66934 29.9471 5.60305 30.1236 5.47048C30.3056 5.33791 30.4214 5.15839 30.471 4.93191H31.7035C31.6429 5.25229 31.5133 5.53953 31.3148 5.79363C31.1162 6.04772 30.8598 6.24658 30.5455 6.3902C30.2367 6.53382 29.892 6.60563 29.5115 6.60563C29.0648 6.60563 28.6678 6.51172 28.3204 6.32391C27.9729 6.13058 27.7027 5.85715 27.5097 5.50363C27.3167 5.1501 27.2202 4.73305 27.2202 4.25248C27.2202 3.77191 27.3167 3.35487 27.5097 3.00134C27.7027 2.64229 27.9729 2.36887 28.3204 2.18106C28.6678 1.99325 29.0648 1.89934 29.5115 1.89934C29.9637 1.89934 30.358 1.99325 30.6944 2.18106C31.0363 2.36887 31.2982 2.62848 31.4802 2.95991C31.6677 3.28582 31.7614 3.65867 31.7614 4.07848ZM30.5868 3.96248C30.6034 3.58687 30.5041 3.30239 30.2891 3.10906C30.0795 2.91572 29.8203 2.81906 29.5115 2.81906C29.1972 2.81906 28.9325 2.91572 28.7174 3.10906C28.5023 3.30239 28.3838 3.58687 28.3617 3.96248H30.5868ZM34.3844 1.89934C34.7704 1.89934 35.0985 1.99048 35.3687 2.17277C35.6445 2.35506 35.843 2.60087 35.9644 2.9102V0.416199H37.1225V6.54763H35.9644V5.58649C35.843 5.89582 35.6445 6.14439 35.3687 6.3322C35.0985 6.51448 34.7704 6.60563 34.3844 6.60563C33.9984 6.60563 33.6509 6.51172 33.3421 6.32391C33.0333 6.1361 32.7907 5.86544 32.6142 5.51191C32.4432 5.15286 32.3578 4.73305 32.3578 4.25248C32.3578 3.77191 32.4432 3.35487 32.6142 3.00134C32.7907 2.64229 33.0333 2.36887 33.3421 2.18106C33.6509 1.99325 33.9984 1.89934 34.3844 1.89934ZM34.7483 2.91848C34.3844 2.91848 34.0921 3.03724 33.8715 3.27477C33.6509 3.51229 33.5406 3.8382 33.5406 4.25248C33.5406 4.66677 33.6509 4.99267 33.8715 5.2302C34.0921 5.4622 34.3844 5.5782 34.7483 5.5782C35.1013 5.5782 35.3908 5.45944 35.6169 5.22191C35.8485 4.97887 35.9644 4.65572 35.9644 4.25248C35.9644 3.84372 35.8485 3.52058 35.6169 3.28306C35.3908 3.04001 35.1013 2.91848 34.7483 2.91848Z" fill="#000080"/>
</svg>
